<?xml version="1.0" encoding="utf-8"?>
<!-- Generator: Adobe Illustrator 16.0.0, SVG Export Plug-In . SVG Version: 6.00 Build 0)  -->
<!DOCTYPE svg PUBLIC "-//W3C//DTD SVG 1.1//EN" "http://www.w3.org/Graphics/SVG/1.1/DTD/svg11.dtd">
<svg version="1.1" id="Fitness" xmlns="http://www.w3.org/2000/svg" xmlns:xlink="http://www.w3.org/1999/xlink" x="0px" y="0px"
	 width="139px" height="139px" fill="white" viewBox="0 0 139 139" enable-background="new 0 0 139 139" xml:space="preserve">
<path d="M39.825,75.947c-3.147,3.147-8.251,3.146-11.397,0l0,0c-3.147-3.147-3.147-8.25,0-11.397l36.121-36.121
	c3.147-3.147,8.25-3.147,11.397,0l0,0c3.146,3.147,3.147,8.25,0,11.397L39.825,75.947z"/>
<path d="M54.059,23.891c-2.62-2.62-6.868-2.622-9.488-0.002l-5.886,5.886l-6.625-6.625l-8.91,8.91l6.625,6.625l-5.885,5.885
	c-2.621,2.622-2.619,6.869,0.001,9.489c2.619,2.619,6.865,2.62,9.487-0.001l20.68-20.681C56.679,30.756,56.678,26.51,54.059,23.891z
	"/>
<path d="M63.053,99.175c-3.147,3.147-3.146,8.251,0,11.398l0,0c3.147,3.147,8.251,3.147,11.398,0l36.121-36.121
	c3.147-3.147,3.146-8.25-0.001-11.397l0,0c-3.146-3.146-8.25-3.148-11.397-0.001L63.053,99.175z"/>
<path d="M115.109,84.941c2.621,2.621,2.623,6.868,0.002,9.489l-5.885,5.885l6.625,6.625l-8.911,8.911l-6.625-6.625l-5.885,5.885
	c-2.621,2.621-6.868,2.619-9.489-0.002c-2.619-2.619-2.62-6.865,0.002-9.486l20.681-20.681
	C108.244,82.322,112.49,82.322,115.109,84.941z"/>
<polygon points="75.235,66.838 72.163,63.766 65.108,56.711 56.454,65.365 63.509,72.42 66.581,75.492 73.636,82.547 82.29,73.893
	"/>
</svg>
