<?xml version="1.0" encoding="utf-8"?>
<!-- Generator: Adobe Illustrator 16.0.0, SVG Export Plug-In . SVG Version: 6.00 Build 0)  -->
<!DOCTYPE svg PUBLIC "-//W3C//DTD SVG 1.1//EN" "http://www.w3.org/Graphics/SVG/1.1/DTD/svg11.dtd">
<svg version="1.1" id="Folder" xmlns="http://www.w3.org/2000/svg" xmlns:xlink="http://www.w3.org/1999/xlink" x="0px" y="0px"
	 width="139px" height="139px" fill="white" viewBox="0 0 139 139" enable-background="new 0 0 139 139" xml:space="preserve">
<path d="M100.935,93.803l7.914-37.998l-7.764-0.001v-2.728c0-4.61-3.75-8.361-8.36-8.361H63.943l-8.234-7.476H39.201
	c-4.61,0-8.361,3.751-8.361,8.361v47.797c0,4.61,3.751,8.361,8.36,8.361l49.474,0.002l4.051-0.002c0.045,0,0.088-0.012,0.133-0.014
	C97.209,101.608,100.726,98.137,100.935,93.803z M36.84,93.397V45.601c0-1.302,1.059-2.361,2.361-2.361h14.19l8.234,7.476h31.099
	c1.302,0,2.36,1.059,2.36,2.361v2.729H48.786l-7.764,39.954h-1.82C37.899,95.759,36.84,94.699,36.84,93.397z M47.134,95.759
	l6.598-33.954h41.353h3.406h2.979l-6.45,30.977c-0.028,0.135-0.035,0.275-0.044,0.416c-0.005,0.066-0.021,0.133-0.021,0.197
	c0,0.001,0,0.002,0,0.003c0,1.302-1.06,2.361-2.361,2.361H47.134z"/>
</svg>
