<?xml version="1.0" encoding="utf-8"?>
<!-- Generator: Adobe Illustrator 16.0.0, SVG Export Plug-In . SVG Version: 6.00 Build 0)  -->
<!DOCTYPE svg PUBLIC "-//W3C//DTD SVG 1.1//EN" "http://www.w3.org/Graphics/SVG/1.1/DTD/svg11.dtd">
<svg version="1.1" id="Trash" xmlns="http://www.w3.org/2000/svg" xmlns:xlink="http://www.w3.org/1999/xlink" x="0px" y="0px"
	 width="139px" height="139px" fill="white" viewBox="0 0 139 139" enable-background="new 0 0 139 139" xml:space="preserve">
<path d="M98.068,55.057c-1.457-1.704-3.578-2.681-5.819-2.681h-46.26c-2.242,0-4.363,0.977-5.821,2.683
	c-1.456,1.705-2.09,3.953-1.741,6.168l6.726,42.546c0.592,3.742,3.771,6.459,7.562,6.459h32.808c3.79,0,6.97-2.717,7.561-6.459
	l6.728-42.546C100.161,59.014,99.527,56.766,98.068,55.057z M93.885,60.29l-6.728,42.546c-0.128,0.81-0.815,1.396-1.635,1.396
	H52.715c-0.819,0-1.507-0.587-1.635-1.396l-6.726-42.545c-0.076-0.48,0.062-0.967,0.375-1.334c0.315-0.369,0.774-0.581,1.259-0.581
	h46.26c0.485,0,0.944,0.212,1.258,0.578C93.822,59.324,93.96,59.811,93.885,60.29z"/>
<path d="M98.507,44.406c0-7.521-4.901-13.641-10.927-13.641H50.66c-6.026,0-10.929,6.119-10.929,13.641v3.167h58.776V44.406z
	 M46.096,41.573c0.743-2.788,2.534-4.808,4.564-4.808h36.92c2.029,0,3.819,2.02,4.562,4.808H46.096z"/>
<path d="M69.119,65.16c-1.469,0-2.66,1.191-2.66,2.661v27.954c0,1.469,1.191,2.661,2.66,2.661c1.469,0,2.66-1.192,2.66-2.661V67.821
	C71.779,66.352,70.588,65.16,69.119,65.16z"/>
<path d="M55.187,65.292c-1.463,0.127-2.546,1.418-2.417,2.88l2.782,27.835c0.121,1.386,1.282,2.43,2.646,2.43
	c0.078,0,0.157-0.004,0.235-0.012c1.464-0.127,2.547-1.418,2.418-2.881L58.069,67.71C57.94,66.245,56.638,65.136,55.187,65.292z"/>
<path d="M82.711,65.292c-1.461-0.15-2.754,0.955-2.881,2.418l-2.782,27.834c-0.129,1.463,0.955,2.754,2.418,2.881
	c0.078,0.008,0.158,0.012,0.234,0.012c1.365,0,2.526-1.044,2.647-2.43l2.782-27.835C85.259,66.71,84.175,65.419,82.711,65.292z"/>
</svg>
